/* XPM */
static char * E:\Deb\GitHub\lamacoin_or\share\pixmaps\bitcoin32_0_xpm[] = {
"32 32 697 2",
"  	c None",
". 	c #B4A88D",
"+ 	c #B6A989",
"@ 	c #B3A88A",
"# 	c #AEA48E",
"$ 	c #CABA98",
"% 	c #CEBC91",
"& 	c #D6C189",
"* 	c #DFC888",
"= 	c #E3CE8B",
"- 	c #E5D18E",
"; 	c #E6D390",
"> 	c #E8D492",
", 	c #E6D495",
"' 	c #DDCD99",
") 	c #CFC29B",
"! 	c #BDB394",
"~ 	c #D0C2A3",
"{ 	c #DAC38C",
"] 	c #E2CA86",
"^ 	c #E2CE8A",
"/ 	c #E5D695",
"( 	c #E7DB9C",
"_ 	c #E6DB9D",
": 	c #E4D89C",
"< 	c #E1D497",
"[ 	c #DDCF91",
"} 	c #DACA8A",
"| 	c #DAC986",
"1 	c #E0CF8B",
"2 	c #EFDF9F",
"3 	c #EBDEAB",
"4 	c #C2BBA1",
"5 	c #D2BE90",
"6 	c #DFC680",
"7 	c #E3D090",
"8 	c #E9DEA3",
"9 	c #EDE6AA",
"0 	c #EDE3A6",
"a 	c #ECDF9F",
"b 	c #EADC99",
"c 	c #E9D997",
"d 	c #E8D895",
"e 	c #E6D694",
"f 	c #E1D18E",
"g 	c #D7C684",
"h 	c #CCB877",
"i 	c #C9B472",
"j 	c #D7C582",
"k 	c #F0E4A3",
"l 	c #DCD6AC",
"m 	c #DBC386",
"n 	c #E0C884",
"o 	c #E8DBA0",
"p 	c #EFE8AF",
"q 	c #EAE0A9",
"r 	c #E3D6A4",
"s 	c #E0D2A5",
"t 	c #E1D4AB",
"u 	c #E4D8B4",
"v 	c #E8DCBC",
"w 	c #EBE0C2",
"x 	c #EDE3C5",
"y 	c #E9DFB5",
"z 	c #E6D99D",
"A 	c #D4C17A",
"B 	c #BEA660",
"C 	c #BFA662",
"D 	c #DFD28E",
"E 	c #F5F2BC",
"F 	c #C5BEA4",
"G 	c #DCC385",
"H 	c #E1CB89",
"I 	c #E9E0A6",
"J 	c #F0E6A9",
"K 	c #E4D392",
"L 	c #BDB18D",
"M 	c #B0A892",
"N 	c #B7B1A1",
"O 	c #BEBAAC",
"P 	c #C5C1B6",
"Q 	c #CDCAC0",
"R 	c #D8D6CE",
"S 	c #E4E2DB",
"T 	c #D8D4C4",
"U 	c #CDC195",
"V 	c #ECDEA8",
"W 	c #FAEFB1",
"X 	c #E5D894",
"Y 	c #C3AA62",
"Z 	c #B0934C",
"` 	c #D2C27F",
" .	c #F8F6BF",
"..	c #C7C0A7",
"+.	c #DCC588",
"@.	c #E0CB88",
"#.	c #E9DFA5",
"$.	c #EDE1A0",
"%.	c #E6D18D",
"&.	c #D1BC85",
"*.	c #71706F",
"=.	c #D5D5D5",
"-.	c #E6E6E6",
";.	c #EDEDED",
">.	c #F1F1F1",
",.	c #F5F5F5",
"'.	c #F8F8F8",
").	c #F9F9F9",
"!.	c #B5B5B4",
"~.	c #A6A083",
"{.	c #D6CC9A",
"].	c #F9EEB5",
"^.	c #FFFBC2",
"/.	c #F3EFB0",
"(.	c #C4AE65",
"_.	c #A98840",
":.	c #CEBD7B",
"<.	c #F7F5C3",
"[.	c #CEBB8C",
"}.	c #E3D99E",
"|.	c #EADE9D",
"1.	c #E6CF8B",
"2.	c #E5CD8E",
"3.	c #D9C58D",
"4.	c #8B8A86",
"5.	c #FFFFFF",
"6.	c #FCFCFC",
"7.	c #595958",
"8.	c #77745E",
"9.	c #C5BD90",
"0.	c #F6ECB5",
"a.	c #FFF6BD",
"b.	c #FFFEC8",
"c.	c #F8F6BB",
"d.	c #C1AA61",
"e.	c #A6853C",
"f.	c #D8CB8A",
"g.	c #E5E1B8",
"h.	c #C5BA9C",
"i.	c #E1C985",
"j.	c #DFD094",
"k.	c #E6DA9B",
"l.	c #E6D08C",
"m.	c #E7CF90",
"n.	c #E9D495",
"o.	c #DCCB92",
"p.	c #979692",
"q.	c #FAFAFA",
"r.	c #2A2A2A",
"s.	c #615D4B",
"t.	c #BEB78E",
"u.	c #F4EDB8",
"v.	c #FFF9C1",
"w.	c #FFFAC2",
"x.	c #FFFFCB",
"y.	c #F4F0B6",
"z.	c #B69B51",
"A.	c #AD8F48",
"B.	c #EBE5A8",
"C.	c #D0CBAF",
"D.	c #DDC992",
"E.	c #DECA8A",
"F.	c #DFD295",
"G.	c #E2D18C",
"H.	c #E9D292",
"I.	c #EAD597",
"J.	c #EDD89A",
"K.	c #E1D19C",
"L.	c #AFAEAC",
"M.	c #FDFDFE",
"N.	c #FBFBFB",
"O.	c #E8E8E8",
"P.	c #262625",
"Q.	c #5F5D49",
"R.	c #BEBA90",
"S.	c #F4EFBB",
"T.	c #FFFAC3",
"U.	c #FFFFCE",
"V.	c #E1D696",
"W.	c #A7863D",
"X.	c #C7B270",
"Y.	c #F1EFBD",
"Z.	c #C4B99D",
"`.	c #E5CE8C",
" +	c #D8C689",
".+	c #DCCC8A",
"++	c #E7D391",
"@+	c #ECD699",
"#+	c #EDD99C",
"$+	c #F0DDA0",
"%+	c #E8DAA8",
"&+	c #D5D5D3",
"*+	c #FBFBFC",
"=+	c #F6F6F6",
"-+	c #F3F3F3",
";+	c #EDEDEE",
">+	c #BBBCBF",
",+	c #585857",
"'+	c #6E6B57",
")+	c #C0BC92",
"!+	c #FFFCC6",
"~+	c #FDFCC6",
"{+	c #AE9049",
"]+	c #E8DEA0",
"^+	c #D1CCB2",
"/+	c #CDBF96",
"(+	c #DDC685",
"_+	c #D2C182",
":+	c #DECC8B",
"<+	c #EEDB9D",
"[+	c #F1DFA1",
"}+	c #F2E1A5",
"|+	c #EFE4B7",
"1+	c #F7F7F6",
"2+	c #EFEFEF",
"3+	c #EFEFF0",
"4+	c #ECECED",
"5+	c #E9E9EA",
"6+	c #E6E7E8",
"7+	c #DEDFE1",
"8+	c #919398",
"9+	c #A1A19F",
"0+	c #7D7C66",
"a+	c #C4C096",
"b+	c #F6F1BC",
"c+	c #FDF8C1",
"d+	c #FFFCC8",
"e+	c #E3D897",
"f+	c #AF9048",
"g+	c #CEBA78",
"h+	c #D9D2AC",
"i+	c #DDCB96",
"j+	c #D4BF7E",
"k+	c #CEBB7A",
"l+	c #E6D395",
"m+	c #F2DEA1",
"n+	c #F1E0A3",
"o+	c #F3E3A7",
"p+	c #F6E6AB",
"q+	c #F1E7C0",
"r+	c #DEDFE0",
"s+	c #E2E2E4",
"t+	c #E4E5E6",
"u+	c #E3E4E5",
"v+	c #E3E3E5",
"w+	c #E2E3E4",
"x+	c #D9DADC",
"y+	c #7C7F88",
"z+	c #D5D5D2",
"A+	c #87856D",
"B+	c #C9C59A",
"C+	c #F8F3BE",
"D+	c #F9F4BD",
"E+	c #F7F0BB",
"F+	c #EFE8AD",
"G+	c #BEA45C",
"H+	c #C0A864",
"I+	c #DCD3A0",
"J+	c #E6D297",
"K+	c #CCB675",
"L+	c #CDB978",
"M+	c #EFDCA0",
"N+	c #F3E2A6",
"O+	c #F5E4A8",
"P+	c #F6E7AC",
"Q+	c #F8EAAF",
"R+	c #E7E0BF",
"S+	c #C4C4C4",
"T+	c #E4E4E6",
"U+	c #E4E5E7",
"V+	c #D8D9DC",
"W+	c #717781",
"X+	c #D8D8D4",
"Y+	c #8A876C",
"Z+	c #D0CC9F",
"`+	c #FAF5BF",
" @	c #FEF9C2",
".@	c #FBF6BF",
"+@	c #F8F1BC",
"@@	c #EEE7B0",
"#@	c #ECE5AD",
"$@	c #CAB570",
"%@	c #BDA35F",
"&@	c #D8CC92",
"*@	c #B2AA96",
"=@	c #B3A991",
"-@	c #E9D598",
";@	c #C4AC69",
">@	c #CDBA79",
",@	c #F4E4A9",
"'@	c #F5E7AB",
")@	c #F8E8AD",
"!@	c #F9ECB1",
"~@	c #FBEFB4",
"{@	c #CFCBAF",
"]@	c #ACACAD",
"^@	c #E1E2E4",
"/@	c #E5E6E8",
"(@	c #E6E7E9",
"_@	c #E7E8EA",
":@	c #E8E9EB",
"<@	c #D8DADD",
"[@	c #777C8A",
"}@	c #ADADA6",
"|@	c #8D8A6C",
"1@	c #D9D4A6",
"2@	c #FBF6C0",
"3@	c #FAF4BE",
"4@	c #F6F0B9",
"5@	c #F1EAB3",
"6@	c #EDE5AE",
"7@	c #E7DEA7",
"8@	c #E2DAA4",
"9@	c #CEBD79",
"0@	c #C1A863",
"a@	c #D1C286",
"b@	c #B3AA8D",
"c@	c #BAB091",
"d@	c #E8D697",
"e@	c #BDA35E",
"f@	c #CEB97A",
"g@	c #F8E9AF",
"h@	c #FAEDB3",
"i@	c #FBF1B6",
"j@	c #FEF4B8",
"k@	c #ADA995",
"l@	c #A7A9AD",
"m@	c #EAEBED",
"n@	c #EBECEE",
"o@	c #ECEDEF",
"p@	c #ECEDF0",
"q@	c #D9DCE1",
"r@	c #797E89",
"s@	c #7E7D73",
"t@	c #999675",
"u@	c #DEDAA9",
"v@	c #F7F1BB",
"w@	c #F4ECB6",
"x@	c #EFE8B1",
"y@	c #EAE2AB",
"z@	c #E5DBA4",
"A@	c #DED39C",
"B@	c #D8CE97",
"C@	c #CEBC7A",
"D@	c #C6AF6C",
"E@	c #CCBC80",
"F@	c #A79B7A",
"G@	c #BEB394",
"H@	c #E9D899",
"I@	c #B79C56",
"J@	c #CBB678",
"K@	c #FBEFB5",
"L@	c #FDF2B8",
"M@	c #FEF4BA",
"N@	c #F6EEB7",
"O@	c #87867A",
"P@	c #BCC0C4",
"Q@	c #EDEEF0",
"R@	c #EEEFF2",
"S@	c #EFF1F3",
"T@	c #F1F2F4",
"U@	c #DADDE3",
"V@	c #64686F",
"W@	c #616051",
"X@	c #A4A17D",
"Y@	c #E1DBA9",
"Z@	c #ECE5AE",
"`@	c #E7DFA8",
" #	c #E0D7A1",
".#	c #DBCF99",
"+#	c #D3C790",
"@#	c #CEC089",
"##	c #CCBA77",
"$#	c #CDB775",
"%#	c #C7B77A",
"&#	c #A09473",
"*#	c #BCB298",
"=#	c #EDDDA0",
"-#	c #B59851",
";#	c #C3AE6F",
">#	c #FCF3BA",
",#	c #FEF3B9",
"'#	c #FFF4BB",
")#	c #FFF7BF",
"!#	c #E6E1B2",
"~#	c #81817B",
"{#	c #D9DCE0",
"]#	c #F2F3F5",
"^#	c #F3F4F6",
"/#	c #F4F5F7",
"(#	c #F2F3F6",
"_#	c #D4D8DE",
":#	c #292828",
"<#	c #605E4B",
"[#	c #AEA982",
"}#	c #E0DAA7",
"|#	c #E5DBA5",
"1#	c #DFD49D",
"2#	c #D7CC94",
"3#	c #D1C48D",
"4#	c #CABC83",
"5#	c #C3B37A",
"6#	c #CAB874",
"7#	c #D3BE7E",
"8#	c #C1AE72",
"9#	c #A2987D",
"0#	c #F0E3A8",
"a#	c #B99B55",
"b#	c #B79F5E",
"c#	c #FAF1B9",
"d#	c #FFF7BE",
"e#	c #FFF8C0",
"f#	c #FFF9C2",
"g#	c #DAD7B0",
"h#	c #A6A6A5",
"i#	c #EDEFF2",
"j#	c #F5F6F7",
"k#	c #F5F6F8",
"l#	c #F6F7F9",
"m#	c #F7F8FA",
"n#	c #F7F8F9",
"o#	c #D2D5D9",
"p#	c #555552",
"q#	c #757257",
"r#	c #B8B287",
"s#	c #E0D8A3",
"t#	c #E2D7A1",
"u#	c #DBD098",
"v#	c #D5C890",
"w#	c #CDC089",
"x#	c #C6B880",
"y#	c #C0AF77",
"z#	c #B9A76D",
"A#	c #CEBB77",
"B#	c #D6C384",
"C#	c #B6A369",
"D#	c #A19A88",
"E#	c #EBE4B2",
"F#	c #C3AA64",
"G#	c #AA8B47",
"H#	c #EAE3AC",
"I#	c #FFFDC6",
"J#	c #E2E0C4",
"K#	c #D5D7DB",
"L#	c #F9F9FB",
"M#	c #F9FAFB",
"N#	c #FAFBFC",
"O#	c #FBFCFD",
"P#	c #FCFCFD",
"Q#	c #A4A39C",
"R#	c #817D60",
"S#	c #BDB689",
"T#	c #D7CD99",
"U#	c #D4C891",
"V#	c #CFC28C",
"W#	c #CABB83",
"X#	c #C4B37B",
"Y#	c #BDAB73",
"Z#	c #B5A169",
"`#	c #B4A163",
" $	c #D8C683",
".$	c #D2C081",
"+$	c #A99762",
"@$	c #E1DBB4",
"#$	c #D8C684",
"$$	c #A5843B",
"%$	c #CEC38A",
"&$	c #FFFFCD",
"*$	c #F5F4E4",
"=$	c #F0F2F5",
"-$	c #FDFEFE",
";$	c #FEFEFF",
">$	c #FEFFFF",
",$	c #FEFEFE",
"'$	c #DFDFDE",
")$	c #C4C3BF",
"!$	c #B1B0AA",
"~$	c #A6A59C",
"{$	c #A2A096",
"]$	c #B2AEA2",
"^$	c #C6C2B5",
"/$	c #B3AA8E",
"($	c #A7955F",
"_$	c #A59058",
":$	c #BAA664",
"<$	c #E4D695",
"[$	c #C2AE6E",
"}$	c #A19169",
"|$	c #D4CEB2",
"1$	c #F1E9AE",
"2$	c #B2944B",
"3$	c #AF9757",
"4$	c #F3F2BF",
"5$	c #FDF9C6",
"6$	c #F7F6F1",
"7$	c #FCFCFE",
"8$	c #F1F1F2",
"9$	c #C8CACA",
"0$	c #A09B8F",
"a$	c #7F6F44",
"b$	c #97834A",
"c$	c #D1C07B",
"d$	c #E6D89B",
"e$	c #A89252",
"f$	c #A79B81",
"g$	c #F3EFC1",
"h$	c #D1BD7D",
"i$	c #A7863E",
"j$	c #CABE87",
"k$	c #FDFDCD",
"l$	c #F0EDC6",
"m$	c #EBEBEB",
"n$	c #FDFDFD",
"o$	c #F7F7F7",
"p$	c #F0F0F1",
"q$	c #EAEAEB",
"r$	c #CFD0D2",
"s$	c #B3B5B7",
"t$	c #948F82",
"u$	c #64542F",
"v$	c #A38F52",
"w$	c #EDE0A0",
"x$	c #CEBD7F",
"y$	c #98834C",
"z$	c #D3CEB4",
"A$	c #F1EAAF",
"B$	c #BB9F58",
"C$	c #AD9351",
"D$	c #DBD8B4",
"E$	c #DDDDCD",
"F$	c #E5E5E5",
"G$	c #DFDFDF",
"H$	c #D9D9D9",
"I$	c #D1D1D3",
"J$	c #C8C8C8",
"K$	c #BFBFC0",
"L$	c #BDBDC0",
"M$	c #C1C3C4",
"N$	c #C1C1C4",
"O$	c #B8BABD",
"P$	c #B4B7B9",
"Q$	c #A4A5AA",
"R$	c #96979C",
"S$	c #EEEDED",
"T$	c #736D5C",
"U$	c #6B5B31",
"V$	c #CEBF82",
"W$	c #EDE2A6",
"X$	c #A08947",
"Y$	c #A09475",
"Z$	c #E3E0B7",
"`$	c #E3D797",
" %	c #B79A52",
".%	c #B19F6F",
"+%	c #AAA88E",
"@%	c #68665D",
"#%	c #5C5B55",
"$%	c #5E5D58",
"%%	c #63625E",
"&%	c #696863",
"*%	c #6F6E6A",
"=%	c #767570",
"-%	c #7C7B77",
";%	c #84837E",
">%	c #8C8B87",
",%	c #94938F",
"'%	c #9C9B98",
")%	c #A5A4A2",
"!%	c #AEADAB",
"~%	c #BDBCBB",
"{%	c #9B9892",
"]%	c #564C32",
"^%	c #9C915E",
"/%	c #EDE4AC",
"(%	c #B8A362",
"_%	c #8E784B",
":%	c #F5F3C0",
"<%	c #DDCE8C",
"[%	c #B69C57",
"}%	c #A18F59",
"|%	c #9D9672",
"1%	c #898666",
"2%	c #7B755A",
"3%	c #757155",
"4%	c #716A4F",
"5%	c #6C664C",
"6%	c #696248",
"7%	c #665E45",
"8%	c #635B41",
"9%	c #60583F",
"0%	c #5D553E",
"a%	c #5C543E",
"b%	c #5C543F",
"c%	c #5C5542",
"d%	c #605949",
"e%	c #574E37",
"f%	c #82774E",
"g%	c #D7CF9E",
"h%	c #C4B275",
"i%	c #8F7439",
"j%	c #C8C2AB",
"k%	c #F4EFBA",
"l%	c #DCCC8B",
"m%	c #C0A966",
"n%	c #AD9960",
"o%	c #AA9F6E",
"p%	c #B2A97D",
"q%	c #B4AA7C",
"r%	c #AEA273",
"s%	c #A6996B",
"t%	c #9F9263",
"u%	c #988A5B",
"v%	c #928253",
"w%	c #8A7A4B",
"x%	c #847244",
"y%	c #7C6A3D",
"z%	c #736033",
"A%	c #6C5A2C",
"B%	c #7B6A3C",
"C%	c #A3996A",
"D%	c #D3CB9B",
"E%	c #BEAD71",
"F%	c #8B7235",
"G%	c #9F9379",
"H%	c #C7BFA8",
"I%	c #ECE6B2",
"J%	c #E1D491",
"K%	c #D3C07D",
"L%	c #CAB675",
"M%	c #BBA970",
"N%	c #B9A873",
"O%	c #B6A671",
"P%	c #B2A26B",
"Q%	c #AE9B63",
"R%	c #A7935B",
"S%	c #A08B53",
"T%	c #98824B",
"U%	c #927B43",
"V%	c #907940",
"W%	c #9E884E",
"X%	c #C1B175",
"Y%	c #E8E0A7",
"Z%	c #E9E0AA",
"`%	c #B29E5F",
" &	c #8A7036",
".&	c #9E9379",
"+&	c #CDC79E",
"@&	c #DCD193",
"#&	c #DBCC8A",
"$&	c #DDCC8B",
"%&	c #DAC98A",
"&&	c #D0BF84",
"*&	c #C4B478",
"=&	c #BBAA70",
"-&	c #B6A46A",
";&	c #B5A267",
">&	c #BAA86C",
",&	c #C6B77B",
"'&	c #F6EDB0",
")&	c #F8F1B4",
"!&	c #D5C689",
"~&	c #9B8140",
"{&	c #8E7848",
"]&	c #B7B097",
"^&	c #CABF8D",
"/&	c #D0C384",
"(&	c #D5C683",
"_&	c #E1D291",
":&	c #E9DD9D",
"<&	c #EEE3A4",
"[&	c #F0E6A8",
"}&	c #F4EAAC",
"|&	c #F6ECAF",
"1&	c #F3E9AC",
"2&	c #E5D89A",
"3&	c #C6B575",
"4&	c #A28B4B",
"5&	c #8C743C",
"6&	c #A59576",
"7&	c #AAA286",
"8&	c #ADA47D",
"9&	c #B3A472",
"0&	c #B6A469",
"a&	c #BBA869",
"b&	c #BDAB6C",
"c&	c #BAA868",
"d&	c #AE9A5B",
"e&	c #A08A4D",
"f&	c #97814D",
"g&	c #958259",
"h&	c #9B8B6A",
"i&	c #999284",
"j&	c #938972",
"k&	c #86795B",
"l&	c #857756",
"m&	c #93866A",
"n&	c #A19884",
"                            . + @ #                             ",
"                    $ % & * = - ; > , ' ) !                     ",
"                ~ { ] ^ / ( _ : < [ } | 1 2 3 4                 ",
"              5 6 7 8 9 0 a b c d e f g h i j k l               ",
"            m n o p q r s t u v w x y z e A B C D E F           ",
"          G H I J K L M N O P Q R S T U V W X Y Z `  ...        ",
"        +.@.#.$.%.&.*.=.-.;.>.,.'.).!.~.{.].^./.(._.:.<.        ",
"      [.n }.|.1.2.3.4.).5.5.5.5.5.6.7.8.9.0.a.b.c.d.e.f.g.      ",
"    h.i.j.k.l.m.n.o.p.q.5.5.5.5.5.q.r.s.t.u.v.w.x.y.z.A.B.C.    ",
"    D.E.F.G.H.I.J.K.L.6.5.5.5.M.N.O.P.Q.R.S.T.T.T.U.V.W.X.Y.    ",
"  Z.`. +.+++@+#+$+%+&+6.*+).=+-+;+>+,+'+)+S.T.T.T.!+~+(.{+]+^+  ",
"  /+(+_+:+#+<+[+}+|+1+2+3+4+5+6+7+8+9+0+a+b+T.T.T.c+d+e+f+g+h+  ",
"  i+j+k+l+m+n+o+p+q+r+s+t+u+v+w+x+y+z+A+B+C+T.T.c+D+E+F+G+H+I+  ",
"  J+K+L+M+N+O+P+Q+R+S+7+v+u+T+U+V+W+X+Y+Z+`+ @.@+@u.@@#@$@%@&@*@",
"=@-@;@>@,@'@)@!@~@{@]@^@/@(@_@:@<@[@}@|@1@2@3@4@5@6@7@8@9@0@a@b@",
"c@d@e@f@g@Q+h@i@j@k@l@_@m@n@o@p@q@r@s@t@u@v@w@x@y@z@A@B@C@D@E@F@",
"G@H@I@J@K@~@L@M@N@O@P@Q@R@S@T@S@U@V@W@X@Y@5@Z@`@ #.#+#@###$#%#&#",
"*#=#-#;#>#,#'#)#!#~#{#T@]#^#/#(#_#:#<#[#}#y@|#1#2#3#4#5#6#7#8#9#",
"  0#a#b#c#d#e#f#g#h#i#j#k#l#m#n#o#p#q#r#s#t#u#v#w#x#y#z#A#B#C#D#",
"  E#F#G#H#I#f#T.J#K#l#L#M#N#O#P#m@Q#R#S#T#U#V#W#X#Y#Z#`# $.$+$  ",
"  @$#$$$%$&$w.T.*$=$*+P#M.-$;$>$,$'$)$!$~${$]$^$/$($_$:$<$[$}$  ",
"  |$1$2$3$4$b.5$6$7$;$>$5.5.5.5.5.,$N.'.8$4+5+9$0$a$b$c$d$e$f$  ",
"    g$h$i$j$k$l$m$5.5.5.5.5.n$6.q.o$,.-+p$q$r$s$t$u$v$w$x$y$    ",
"    z$A$B$C$D$E$m$F$G$H$I$J$K$L$M$N$L$O$P$Q$R$S$T$U$V$W$X$Y$    ",
"      Z$`$ %.%+%@%#%$%%%&%*%=%-%;%>%,%'%)%!%~%{%]%^%/%(%_%      ",
"        :%<%[%}%|%1%2%3%4%5%6%7%8%9%0%a%b%c%d%e%f%g%h%i%        ",
"        j%k%l%m%n%o%p%q%r%s%t%u%v%w%x%y%z%A%B%C%D%E%F%G%        ",
"          H%I%J%K%L%M%N%O%P%Q%R%S%T%U%V%W%X%Y%Z%`% &.&          ",
"              +&@&#&$&%&&&*&=&-&;&>&,&F.'&)&!&~&{&              ",
"                ]&^&/&(&_&:&<&[&}&|&1&2&3&4&5&6&                ",
"                    7&8&9&0&a&b&c&d&e&f&g&h&                    ",
"                          i&j&k&l&m&n&                          "};
