/* XPM */
static char * E:\Deb\GitHub\lamacoin_or\share\pixmaps\bitcoin16_1_xpm[] = {
"16 16 185 2",
"  	c None",
". 	c #B7A67B",
"+ 	c #CBBB8A",
"@ 	c #CBBC8D",
"# 	c #AFA27C",
"$ 	c #DFCB95",
"% 	c #E7D698",
"& 	c #E8DB9D",
"* 	c #E6D999",
"= 	c #E1D393",
"- 	c #DAC988",
"; 	c #DAC887",
"> 	c #E3D6A2",
", 	c #E2CE90",
"' 	c #EADFA1",
") 	c #DED1A2",
"! 	c #DFD2AB",
"~ 	c #E5DAB8",
"{ 	c #ECE1C2",
"] 	c #E9DDAE",
"^ 	c #EBDC9B",
"/ 	c #CAB470",
"( 	c #D6C787",
"_ 	c #E0CC8E",
": 	c #E9DA9A",
"< 	c #E1CB8E",
"[ 	c #DFDFDF",
"} 	c #FDFDFD",
"| 	c #FEFEFE",
"1 	c #B2AFA2",
"2 	c #F2E8B0",
"3 	c #FCF5BB",
"4 	c #CBB772",
"5 	c #D1C182",
"6 	c #DECC96",
"7 	c #E1D293",
"8 	c #E7D291",
"9 	c #E5D297",
"0 	c #DBDBDA",
"a 	c #FFFFFF",
"b 	c #807E72",
"c 	c #F2EBB6",
"d 	c #FFF9C2",
"e 	c #FCF8C1",
"f 	c #BCA45E",
"g 	c #E1D8A6",
"h 	c #DCC889",
"i 	c #E3D090",
"j 	c #EDDA9C",
"k 	c #ECDDA6",
"l 	c #EAEAEA",
"m 	c #F5F5F5",
"n 	c #F0F0F1",
"o 	c #DFDFE1",
"p 	c #69685B",
"q 	c #F4EFBA",
"r 	c #FFFAC3",
"s 	c #FEF9C2",
"t 	c #E8DEA0",
"u 	c #C7B16F",
"v 	c #B1A37C",
"w 	c #CDB979",
"x 	c #EEDC9F",
"y 	c #F3E3A7",
"z 	c #F4E8B7",
"A 	c #D4D4D6",
"B 	c #E4E4E5",
"C 	c #E3E3E5",
"D 	c #C3C4C6",
"E 	c #A4A292",
"F 	c #F7F3BD",
"G 	c #FDF8C1",
"H 	c #F8F2BC",
"I 	c #EFE8B1",
"J 	c #C0A863",
"K 	c #B7AD86",
"L 	c #D0C194",
"M 	c #C6AF6E",
"N 	c #F6E7AC",
"O 	c #F9ECB1",
"P 	c #E4DDB3",
"Q 	c #D0D0D3",
"R 	c #E7E8EA",
"S 	c #E9EAEC",
"T 	c #B1B5BD",
"U 	c #A8A68E",
"V 	c #F8F3BD",
"W 	c #F4EDB7",
"X 	c #EAE2AB",
"Y 	c #DFD59E",
"Z 	c #C9B471",
"` 	c #BDB183",
" .	c #D4C699",
"..	c #BDA563",
"+.	c #FBF1B6",
"@.	c #FDF4BA",
"#.	c #C2BFA2",
"$.	c #E5E7EA",
"%.	c #EFF1F3",
"&.	c #F2F3F5",
"*.	c #A1A5AB",
"=.	c #9F9C7B",
"-.	c #E5DCA5",
";.	c #D8CD96",
">.	c #CBBD85",
",.	c #CDBA78",
"'.	c #B3A477",
").	c #C1B790",
"!.	c #B59A57",
"~.	c #F9F2BA",
"{.	c #FFF9C1",
"].	c #D1D0C2",
"^.	c #F4F5F7",
"/.	c #F7F7F9",
"(.	c #F8F9FB",
"_.	c #B1B3B4",
":.	c #B8B286",
"<.	c #DFD49D",
"[.	c #D2C58E",
"}.	c #C4B57D",
"|.	c #B8A66D",
"1.	c #D2C180",
"2.	c #978A63",
"3.	c #CAB573",
"4.	c #DCD29A",
"5.	c #FEFAC3",
"6.	c #F4F4F1",
"7.	c #FCFCFD",
"8.	c #FDFDFE",
"9.	c #FAFAF9",
"0.	c #E4E4E2",
"a.	c #DBDAD6",
"b.	c #D2D1CB",
"c.	c #9E916B",
"d.	c #B5A163",
"e.	c #CDBB7D",
"f.	c #E7DEAD",
"g.	c #B8A05E",
"h.	c #ECE9C1",
"i.	c #F8F9F9",
"j.	c #F8F8F8",
"k.	c #F2F2F2",
"l.	c #ECECEC",
"m.	c #EBEBEC",
"n.	c #E6E7E8",
"o.	c #E5E6E7",
"p.	c #C6C7C9",
"q.	c #7C6E49",
"r.	c #D8C989",
"s.	c #AE9B66",
"t.	c #DACC8E",
"u.	c #B3A16C",
"v.	c #827E69",
"w.	c #797663",
"x.	c #787462",
"y.	c #787362",
"z.	c #777363",
"A.	c #797365",
"B.	c #686359",
"C.	c #676257",
"D.	c #ADA16C",
"E.	c #C1AF73",
"F.	c #DBCD8F",
"G.	c #C5B275",
"H.	c #C1B47E",
"I.	c #BBAC77",
"J.	c #B09E67",
"K.	c #A18D56",
"L.	c #947E48",
"M.	c #9B864E",
"N.	c #C9BD85",
"O.	c #BEAC71",
"P.	c #AD9F82",
"Q.	c #D4C997",
"R.	c #D7C889",
"S.	c #D6C78A",
"T.	c #D2C488",
"U.	c #D4C68A",
"V.	c #DFD296",
"W.	c #D4C588",
"X.	c #AA9661",
"Y.	c #968A66",
"Z.	c #A49567",
"`.	c #9F8F60",
" +	c #918158",
"            . + @ #             ",
"        $ % & * = - ; >         ",
"      , ' ) ! ~ { ] ^ / (       ",
"    _ : < [ } | | 1 2 3 4 5     ",
"  6 7 8 9 0 a | } b c d e f g   ",
"  h i j k l m n o p q r s t u   ",
"v w x y z A B C D E F G H I J K ",
"L M N O P Q R S T U V W X Y Z ` ",
" ...+.@.#.$.%.&.*.=.I -.;.>.,.'.",
").!.~.{.].^./.(._.:.<.[.}.|.1.2.",
"  3.4.5.6.7.8.| 9.0.a.b.c.d.e.  ",
"  f.g.h.i.j.k.l.m.n.o.p.q.r.s.  ",
"    t.u.v.w.x.y.z.A.B.C.D.E.    ",
"      F.G.H.I.J.K.L.M.N.O.P.    ",
"        Q.R.S.T.U.V.W.X.        ",
"            Y.Z.`. +            "};
