/* XPM */
static char *_pcwg_gai67[] = {
/* columns rows colors chars-per-pixel */
"32 32 218 2 ",
"   c None",
".  c #79582D",
"X  c #6C5A36",
"o  c #745D36",
"O  c #73623C",
"+  c #7A663E",
"@  c #746641",
"#  c #7B6B44",
"$  c #7D6740",
"%  c #5D666A",
"&  c #656C6F",
"*  c #6F797C",
"=  c #845A2E",
"-  c #836337",
";  c #956A38",
":  c #816E44",
">  c #886D43",
",  c #906941",
"<  c #837045",
"1  c #83744B",
"2  c #88794E",
"3  c #8A774B",
"4  c #997B4B",
"5  c #8D7E52",
"6  c #877A50",
"7  c #987F51",
"8  c #A07743",
"9  c #8D8154",
"0  c #9B8554",
"q  c #918659",
"w  c #998657",
"e  c #A9824D",
"r  c #A58855",
"t  c #AC935A",
"y  c #B2945C",
"u  c #B39056",
"i  c #B18552",
"p  c #A89968",
"a  c #B29B64",
"s  c #BA9968",
"d  c #BA9975",
"f  c #BAA269",
"g  c #B3AB75",
"h  c #BCAB73",
"j  c #BEB47C",
"k  c #BFB074",
"l  c #C29C6B",
"z  c #C8A66E",
"x  c #C5AB77",
"c  c #C4B47E",
"v  c #CCB37C",
"b  c #CDB779",
"n  c #DDBC7E",
"m  c #D3B578",
"M  c #2465A1",
"N  c #316DA5",
"B  c #3872A7",
"V  c #3C75AA",
"C  c #3772A8",
"Z  c #6A7F8C",
"A  c #427AAC",
"S  c #4A7EAF",
"D  c #798589",
"F  c #5081AE",
"G  c #4D81B1",
"H  c #5485B2",
"J  c #5A8AB6",
"K  c #5E8EB9",
"L  c #628AAF",
"P  c #618BB2",
"I  c #6892B8",
"U  c #749BBD",
"Y  c #7D9AA8",
"T  c #7EA2C4",
"R  c #888C92",
"E  c #8A9292",
"W  c #89969A",
"Q  c #96989C",
"!  c #9DA596",
"~  c #A9AE9B",
"^  c #8999A3",
"/  c #949EA3",
"(  c #9895A6",
")  c #949DB3",
"_  c #93A0A7",
"`  c #93A4AB",
"'  c #9BA3AB",
"]  c #9DA8AF",
"[  c #9EABB4",
"{  c #9CAFBC",
"}  c #8BA5B1",
"|  c #A3AAAD",
" . c #A7A7AC",
".. c #ABB0A9",
"X. c #BDBCAE",
"o. c #A6AEB5",
"O. c #ACB2B5",
"+. c #ACB5BB",
"@. c #ADB9BD",
"#. c #A6B1BA",
"$. c #B0B4B6",
"%. c #BABDB4",
"&. c #B1B6B9",
"*. c #B5BABC",
"=. c #B9BCBD",
"-. c #C7A983",
";. c #C6B683",
":. c #DCBD86",
">. c #CDBB92",
",. c #C2B8AA",
"<. c #C2B6B3",
"1. c #CAB4A3",
"2. c #BBC1BD",
"3. c #CFC88B",
"4. c #D3CA8D",
"5. c #DACB8D",
"6. c #D7C586",
"7. c #DBC691",
"8. c #D8D191",
"9. c #E0CA8A",
"0. c #E1C698",
"q. c #E5DD9B",
"w. c #EAD79B",
"e. c #DACAAA",
"r. c #C7C7BB",
"t. c #D4C9B3",
"y. c #D1C4B7",
"u. c #DCD2B7",
"i. c #E3CCA0",
"p. c #ECD9A7",
"a. c #E8DBB9",
"s. c #ECE6A3",
"d. c #EEE9AB",
"f. c #F8EFAB",
"g. c #F3E6A9",
"h. c #F5E8B6",
"j. c #FBF4B4",
"k. c #FDF1BD",
"l. c #FBF8BB",
"z. c #85A7C7",
"x. c #81A6C9",
"c. c #8CA9C3",
"v. c #94A8C1",
"b. c #9DB6CE",
"n. c #98B6D2",
"m. c #A5BACC",
"M. c #ABBECC",
"N. c #A5B8C7",
"B. c #B6BDC1",
"V. c #BBBDC2",
"C. c #B6BAC8",
"Z. c #A9BCD2",
"A. c #BEBED4",
"S. c #ACAAC1",
"D. c #CAB1C7",
"F. c #B5C1C5",
"G. c #BBC2C4",
"H. c #BEC6CB",
"J. c #BFC9C7",
"K. c #B6C9DA",
"L. c #BBCDDD",
"P. c #B8C6D2",
"I. c #ABC3D8",
"U. c #C2C4C5",
"Y. c #C5CBC5",
"T. c #C3C6C8",
"R. c #C4CACC",
"E. c #CACCCA",
"W. c #CDC9C6",
"Q. c #D4CDCB",
"!. c #CFD0C4",
"~. c #D3D3CC",
"^. c #DDDAC8",
"/. c #C5CCD2",
"(. c #CBCFD2",
"). c #C6C9D8",
"_. c #CCD2D3",
"`. c #CED6DC",
"'. c #CBD6DC",
"]. c #D1D5D6",
"[. c #D2D6D9",
"{. c #D6DADC",
"}. c #DBDDDE",
"|. c #D7D9D6",
" X c #E5DAC5",
".X c #E4D9DA",
"XX c #E5E0CE",
"oX c #F4EBC6",
"OX c #F3E7C6",
"+X c #FDF5C7",
"@X c #E7E4D7",
"#X c #F2ECDB",
"$X c #F6ECD5",
"%X c #FEF6D5",
"&X c #FAF5D6",
"*X c #C8D7E4",
"=X c #D3DBE2",
"-X c #DADEE1",
";X c #D4D7E0",
":X c #DEE1E3",
">X c #DCE5EC",
",X c #D6E2ED",
"<X c #DEEAF0",
"1X c #E2E4E6",
"2X c #E2E5E8",
"3X c #E5E9EC",
"4X c #EAECED",
"5X c #EBE9E4",
"6X c #F4F2E4",
"7X c #F4F2E9",
"8X c #FCF8E6",
"9X c #EBEEF0",
"0X c #E6EEF4",
"qX c #EEF1F2",
"wX c #F3F4F5",
"eX c #F7F8F9",
"rX c #FBFCFC",
"tX c #F7F6F5",
/* pixels */
"                          1 5 5 3 > <                           ",
"                    2 p ;.4.5.:.m y 4 , - >                     ",
"                + r z 9.6.x d x g.p.0.-.s l ~ p                 ",
"            X - e z n 7.e.y.Q.Q.~.!.<.XX$Xh.p.d.~ ;             ",
"          X . e n 0.t.W.F.*.@.H.T.R % R |.6X&X+Xj.8.9           ",
"        O ; s w.t.| R.{.@.O.@.R.}.E R | / 2..X#X%Xl.8.2         ",
"      O 7 x h.^.| ` -XrXwX}._.{.1X$.&.-XO.S.D.W.6X&Xd.j #       ",
"      w v h.r.B.:XY.E.eXrXwX3X_.T.].[.3X:X).R.{.[.6X+X8.r       ",
"    9 b s.^.Q B.3XeX4X9XrXrX2X`.~.~.2X9XwXeX-X-XV.O.5Xd.a <     ",
"    c w.oX| / +.{.9XeXtXrXqX).P.Y._.3X3X4X2X{.).^ _ E.6X;.0 O   ",
"  q q.j.@X{.F.+.;X0XrXqXn.K I z.T K n.,X}.V.O.| ` `.2XtXe.t :   ",
"  g f.oXJ.-X9X:X1XwXrX*XV V I.>X>Xz.N x.+.R.C.B.[.9X*.|.#Xh 0   ",
"@ 4.j.@X_.].9XqXqXrXrXeXJ A L.rXwXP.S G P.2X$...=.=.& H.tX>.t @ ",
"1 q.l.r.| &.`.3X2X9XeX9XJ A L.eX9X/.C H *XwX*.&.Q._.) /.tXe.a # ",
"9 s.k.~./ * =.eXT.].9XK.G V n.*Xb.J G b.>XeX1XF.;XZ.v.o.2Xa.a $ ",
"q d.+X|.| _ +.:XR.|.3Xz.V C x.x.I G H K.wXwX3XU.(./.F.o.}. Xa : ",
"q s.k.|.} Y #.)._._.-X/.H V m.'.'.Z.S A K.3X:XO.*.'.J./ ].a.y # ",
"9 s.k.U.^ ` F.-X_.Y.-X-XH B I.4X3X_.I M T =X2X*.&._._.| ].u.y < ",
"1 q.l...D ' V.[.:X{.}.{.H A b.:X1X|.L M U =X|.R.G.2.~ ! }.e.t + ",
"@ 4.j.^.@./.[.[.2X:X-X/.F B { '.).b.N A Z.3X1X]._.r.E 2.6X;.0 O ",
"  g f.oXE.B.(.].:XqX4Xb.F F I U P F L } =X>X1XwX{.J.D G.#Xf 9   ",
"  9 q.h.8XT.' #.1XeX3XL.m.P.F.b.{ #.M.] O.*.}.|.F.#.W @Xu.t <   ",
"    h q.oX<.( ` o.F.R.R.Y.Y.R.=.H.O.1X}.T././ Z W Y G.8X;.0 O   ",
"    6 v p.@XG.[ D ` *.H.,...=.V.-X}.wXwX4X[. .& D 2.6Xa.f <     ",
"      w x h.7XF.E ) R.G.,.W.wX)._.9XwXeX1X) #. .U.7X&X5.w       ",
"      @ 0 d a.r.R C.3XQ.1.=.A.K.T.(.1XeXR.^ Z $.5X&Xh.k +       ",
"        O ; e 0.t.T.[.U.' / ( D.H.B.W.{.O.V.V.#X%Xl.8.1         ",
"          o . 8 m i. XU.&.+. .C.W o.=.(.Q.#X&X+Xl.3.6           ",
"            X + e z :.7.1.y.%.<.~ ,.!.OXh.p.w.s.j #             ",
"                $ w h 0.9.;.d -.p.p.:.l i u a q                 ",
"                    # p b 4.5.6.v u ; = + +                     ",
"                          # 2 3 1 $ o                           "
};
