/* XPM */
static char *_2xud_veuco[] = {
/* columns rows colors chars-per-pixel */
"16 16 203 2 ",
"   c None",
".  c #806236",
"X  c #80673E",
"o  c #836A3F",
"O  c #8D693B",
"+  c #8A6D44",
"@  c #897445",
"#  c #8D794B",
"$  c #8E7B4D",
"%  c #98774C",
"&  c #907E4E",
"*  c #927F4F",
"=  c #998352",
"-  c #9D8859",
";  c #9A8B5D",
":  c #9E8E5E",
">  c #A78A5A",
",  c #A38D5D",
"<  c #A48F5F",
"1  c #A88A5B",
"2  c #AB8D5A",
"3  c #AF955F",
"4  c #A49A67",
"5  c #A69C69",
"6  c #AF9A68",
"7  c #AF9B6A",
"8  c #B29564",
"9  c #B39963",
"0  c #ADA26F",
"q  c #B1A671",
"w  c #B3A670",
"e  c #B6A770",
"r  c #B9A871",
"t  c #BBA971",
"y  c #C4AF7C",
"u  c #C2B27D",
"i  c #C0B77F",
"p  c #C1B77F",
"a  c #C6B67D",
"s  c #5081AE",
"d  c #4E82B2",
"f  c #5585B1",
"g  c #5A89B3",
"h  c #5A89B4",
"j  c #5B8AB5",
"k  c #5F8DB8",
"l  c #739CC1",
"z  c #789EC1",
"x  c #7AA0C2",
"c  c #91999B",
"v  c #91999E",
"b  c #8FA2AC",
"n  c #94A1A7",
"m  c #97A4A8",
"M  c #9DA6AD",
"N  c #84A0BA",
"B  c #8FA8BD",
"V  c #ADB5AC",
"C  c #A1A8B0",
"Z  c #A1ACB3",
"A  c #AAAEB2",
"S  c #A8ACB6",
"D  c #AEAFBB",
"F  c #A6B0B3",
"G  c #AAB1B6",
"H  c #ADB3B5",
"J  c #AEB3BB",
"K  c #AFB5BA",
"L  c #AFB7BD",
"P  c #B3BAB8",
"I  c #B1B8BC",
"U  c #B5BEBE",
"Y  c #C1AC80",
"T  c #CDB386",
"R  c #CABC85",
"E  c #D1B783",
"W  c #D0B987",
"Q  c #CABA95",
"!  c #CBBB95",
"~  c #C4B49A",
"^  c #C7B69A",
"/  c #CAB999",
"(  c #CBBF9F",
")  c #D0BA98",
"_  c #D1BC98",
"`  c #D1BD99",
"'  c #D0BE99",
"]  c #CCBDA4",
"[  c #D0BEA0",
"{  c #C0B9B5",
"}  c #CBC288",
"|  c #CCC288",
" . c #D2C695",
".. c #DBD09E",
"X. c #D6CBAC",
"o. c #DCD1A2",
"O. c #C1C4BC",
"+. c #CFCAB9",
"@. c #D3C9B0",
"#. c #D0CBBA",
"$. c #D2CDBB",
"%. c #D7D2B4",
"&. c #DCD8B4",
"*. c #DED5BF",
"=. c #DDDCBF",
"-. c #E9DFAC",
";. c #E0D4BA",
":. c #E9E0AB",
">. c #E9E3B1",
",. c #EAE5B0",
"<. c #E6E1BC",
"1. c #84A4C0",
"2. c #8FABC2",
"3. c #8DADCA",
"4. c #95B3CF",
"5. c #99B6CF",
"6. c #ADB7C4",
"7. c #ABBECF",
"8. c #B2BEC1",
"9. c #B7BCC7",
"0. c #BCBFC0",
"q. c #B9BDC4",
"w. c #A0BBD3",
"e. c #BBC1C3",
"r. c #BFC5C2",
"t. c #BBC1C4",
"y. c #BDC0C4",
"u. c #BEC5C5",
"i. c #BFC5C6",
"p. c #BFC6C7",
"a. c #BBC6CA",
"s. c #BDC5C9",
"d. c #BEC5C8",
"f. c #BEC6C9",
"g. c #AEC3D6",
"h. c #B2C5D4",
"j. c #B9C5D4",
"k. c #BDC9D6",
"l. c #B5C8D9",
"z. c #BECDDC",
"x. c #CECBC3",
"c. c #C8CAC5",
"v. c #CFCCC4",
"b. c #CECDC7",
"n. c #C2C9CD",
"m. c #C3CBCD",
"M. c #C3C9CE",
"N. c #C6C8CC",
"B. c #C4CBCD",
"V. c #C7CBCC",
"C. c #CBCECE",
"Z. c #CCCECF",
"A. c #D9D3C4",
"S. c #DCD9C7",
"D. c #DFDBC7",
"F. c #D1D1CC",
"G. c #C5C5D1",
"H. c #C0C8D2",
"J. c #C7CAD4",
"K. c #CACFD0",
"L. c #CBCFD3",
"P. c #C4CFD8",
"I. c #D0CAD3",
"U. c #CAD1D3",
"Y. c #CAD3D6",
"T. c #CCD3D5",
"R. c #CDD1D7",
"E. c #C7D0D8",
"W. c #C6D2DD",
"Q. c #C7D3DD",
"!. c #C7D3DE",
"~. c #C8D2D9",
"^. c #D0D4D4",
"/. c #D1D5D6",
"(. c #D7DAD5",
"). c #D7D9D7",
"_. c #D3D7DA",
"`. c #D6D9D9",
"'. c #D5D9DB",
"]. c #D7DBDC",
"[. c #E4E1C4",
"{. c #E4E1C8",
"}. c #E3E2D4",
"|. c #ECEADA",
" X c #F1E8D0",
".X c #CDDBE8",
"XX c #DCE0E1",
"oX c #E0E3E4",
"OX c #E2E4E5",
"+X c #E1E5E7",
"@X c #E2E5E7",
"#X c #E3E6E8",
"$X c #E3E9EB",
"%X c #E6E8EC",
"&X c #E9EBED",
"*X c #EBEDEF",
"=X c #EDEEEF",
"-X c #E4EAF0",
";X c #E6ECF0",
":X c #E4ECF3",
">X c #EEF0F1",
",X c #EDF1F5",
"<X c #F2F3F3",
/* pixels */
"          : e t 9 % +           ",
"        2 E ` ] X.^ _  .        ",
"    o 8 / x.e.f.H c c. X,.q     ",
"  $ y $.u.oX*X'.V.U.G.I.|...*   ",
"  a %.G #X<X,XP.m.$X&XR.L D.6   ",
"5 :.(.Y.%X:Xl w.5.3.n.I s.).! # ",
"p <.t.+X>X-Xk .XW.j Q.0.y.J *.- ",
"} [.n B.`.z.d 4.z x ;X/.H.6.A.< ",
"| =.b a.^.E.h h.k.g l.Z.p.U +., ",
"i &.F T.XX~.f 7.j.s g.].r.V @.= ",
"4 -.F.q.@X!.1.2.N B M.].8.P Q @ ",
"  u ;.S Z d.O.i.K.OXL.v m S.7   ",
"    Y #.C N.{ J._.=X9.M }.o.&   ",
"    X 1 [ v.A D K C.b.{.>.0     ",
"        > W ' ~ ( ) T R         ",
"          ; w r 3 O .           "
};
