/* XPM */
static char *cg8da_fqiwj[] = {
/* columns rows colors chars-per-pixel */
"64 64 246 2 ",
"   c None",
".  c #7C5528",
"X  c #655635",
"o  c #675836",
"O  c #6A5A36",
"+  c #6B5C3A",
"@  c #695936",
"#  c #765D37",
"$  c #6F613D",
"%  c #73623C",
"&  c #7B653C",
"*  c #3A4346",
"=  c #4A5355",
"-  c #7C6C43",
";  c #766744",
":  c #7E714C",
">  c #5C6668",
",  c #526E77",
"<  c #6B7578",
"1  c #6A7174",
"2  c #545E61",
"3  c #895C2D",
"4  c #8D5D2F",
"5  c #896638",
"6  c #986837",
"7  c #99713F",
"8  c #A2713B",
"9  c #816D43",
"0  c #83744A",
"q  c #887549",
"w  c #977848",
"e  c #8C7D51",
"r  c #97744D",
"t  c #A67A46",
"y  c #A57851",
"u  c #887C62",
"i  c #76817F",
"p  c #978657",
"a  c #928455",
"s  c #A68A58",
"d  c #B38B56",
"f  c #AB935C",
"g  c #B3995E",
"h  c #B5955C",
"j  c #AB854D",
"k  c #9C9261",
"l  c #B38B6A",
"z  c #A69766",
"x  c #B59C62",
"c  c #B99A67",
"v  c #A9866B",
"b  c #B7A16D",
"n  c #BAA774",
"m  c #B2A973",
"M  c #C4A66C",
"N  c #D5AB68",
"B  c #C5AC76",
"V  c #C9B279",
"C  c #D5B879",
"Z  c #D8B26E",
"A  c #E1BB78",
"S  c #C59C60",
"D  c #2566A1",
"F  c #2B6AA4",
"G  c #2867A2",
"H  c #316EA5",
"J  c #3A74A9",
"K  c #747E83",
"L  c #6C798D",
"P  c #457BAD",
"I  c #4A7DAC",
"U  c #5F7585",
"Y  c #7B8689",
"T  c #798996",
"R  c #708B96",
"E  c #4C80B1",
"W  c #5385B3",
"Q  c #5C8BB6",
"!  c #5182AF",
"~  c #6B95BA",
"^  c #6691B8",
"/  c #769BBC",
"(  c #6E90AB",
")  c #7CA0BF",
"_  c #719BC1",
"`  c #7CA1C4",
"'  c #848A8C",
"]  c #848D94",
"[  c #8A959B",
"{  c #899599",
"}  c #949B9D",
"|  c #949799",
" . c #908E8E",
".. c #AA999A",
"X. c #AAAF95",
"o. c #8C9DA2",
"O. c #8997A7",
"+. c #929EA2",
"@. c #9499A6",
"#. c #8E93AE",
"$. c #AE9BA3",
"%. c #9CA2A4",
"&. c #9CA5AA",
"*. c #97A6AB",
"=. c #8AA4B7",
"-. c #99AAB4",
";. c #8FA2AA",
":. c #A4AAAC",
">. c #A9ACAD",
",. c #A4A6A7",
"<. c #B9B8A4",
"1. c #A3ADB2",
"2. c #A9AEB0",
"3. c #A6ACBC",
"4. c #A5B1B5",
"5. c #ACB1B3",
"6. c #ACB5BA",
"7. c #A9B6BB",
"8. c #B2B5B5",
"9. c #B4BABC",
"0. c #BABCBC",
"q. c #B3B6B9",
"w. c #AEAFAA",
"e. c #98A296",
"r. c #C8B784",
"t. c #D6BC85",
"y. c #CDBB93",
"u. c #D5BC98",
"i. c #C9AA83",
"p. c #C5B5A4",
"a. c #C4BBB8",
"s. c #D4B2AE",
"d. c #BBC2B6",
"f. c #DCCC8C",
"g. c #D8C486",
"h. c #DBC995",
"j. c #DCD394",
"k. c #CBC389",
"l. c #E4C787",
"z. c #E8CD95",
"x. c #E7D998",
"c. c #F2DB99",
"v. c #E2D18D",
"b. c #EAE29E",
"n. c #F2E49E",
"m. c #DAC8A7",
"M. c #D6C6B7",
"N. c #D2CEB7",
"B. c #E9D8A8",
"V. c #F3DCA6",
"C. c #E9D4AF",
"Z. c #EBE4A1",
"A. c #EEE8A6",
"S. c #FBEDAB",
"D. c #F4E9A7",
"F. c #F6F2AD",
"G. c #F9F3AE",
"H. c #FCEDB5",
"J. c #FCECBC",
"K. c #F4E4B9",
"L. c #F9F6B2",
"P. c #FAF4B9",
"I. c #EEE5B0",
"U. c #8997C5",
"Y. c #85A6C5",
"T. c #93ACC5",
"R. c #9CB5CA",
"E. c #98B6D1",
"W. c #ADBBC3",
"Q. c #A6B8C9",
"!. c #B3BDC2",
"~. c #BBBDC5",
"^. c #A5BCD3",
"/. c #BCB7D6",
"(. c #A6A8C2",
"). c #C6B9CC",
"_. c #C9B6D0",
"`. c #BCC3C5",
"'. c #BCC5CA",
"]. c #B7C3C8",
"[. c #ACC2D5",
"{. c #ACC3D8",
"}. c #B5C9DC",
"|. c #B8C9D8",
" X c #B4C5D1",
".X c #BCCFE0",
"XX c #C2C4C5",
"oX c #C2C6C9",
"OX c #C4CBCC",
"+X c #CACDCD",
"@X c #CACAC6",
"#X c #D6CAC5",
"$X c #D9D6C9",
"%X c #C5CDD2",
"&X c #CACFD1",
"*X c #C5C8D9",
"=X c #CCD2D4",
"-X c #CCD4DB",
";X c #C7D3DA",
":X c #D2D4D5",
">X c #D2D6D9",
",X c #D5DADC",
"<X c #DADCDD",
"1X c #DBDCD3",
"2X c #CDCECC",
"3X c #E5DBC6",
"4X c #E1DED4",
"5X c #DDE1D7",
"6X c #EAE4CC",
"7X c #F7EBC8",
"8X c #FCF3C4",
"9X c #FDF3CC",
"0X c #E8E6D9",
"qX c #F3EDD9",
"wX c #FBF3D4",
"eX c #FCF5DC",
"rX c #F8F2DD",
"tX c #C8D7E5",
"yX c #D5DCE1",
"uX c #DADEE2",
"iX c #D1DEEA",
"pX c #CBCAE1",
"aX c #DDE2E4",
"sX c #D9E4E9",
"dX c #DEEBF1",
"fX c #E2E4E5",
"gX c #E3E6E9",
"hX c #E5E9EB",
"jX c #EAECED",
"kX c #EAE9E6",
"lX c #F1ECE7",
"zX c #FDF7E2",
"xX c #FDF8E5",
"cX c #FDF9EC",
"vX c #F5F4EA",
"bX c #EBEEF0",
"nX c #E4EBF1",
"mX c #EEF0F1",
"MX c #E7F2F7",
"NX c #F3F4F5",
"BX c #FDFBF3",
"VX c #F6F8F9",
"CX c #FDFDFD",
"ZX c #F6F6F6",
"AX c #F2ECF1",
"SX c #E4DEE0",
/* pixels */
"                                                            X X X X                                                             ",
"                                                o @ + : 0 a a a e q q & & : ; ;                                                 ",
"                                          O ; 0 k m r.j.b.x.x.v.A Z x j t r q # # + $                                           ",
"                                    o + ; p n x.A.Z.Z.b.A.x.v.h.g.C M d t 8 y 6 6 r r 9 ; u                                     ",
"                                  O ; y n k.z.V.b.f.C M l y y B c.c.z.l.M l l t t t d M X.k ; :                                 ",
"                              @ # w f n V t.C Z S S S l l v v u.H.J.J.7X7XK.V.m.i.l c i.l.B.k.a +                               ",
"                          + @ 5 t d c M N N N Z t.u.m.s.#X#X#X3XqXqXeXeXeXzXeXeXqXK.C.h.u.x.L.A.m ; o                           ",
"                        + + . 6 t l N Z A l.B.C.3XqX4X).gXbXkXoX5.'.=X} K } #XlXBXzXzX7X7XI.P.L.L.j.e @                         ",
"                      o O . 3 8 S A l.z.V.3X$X`.'.=X9.9.-.d.>XOX!.`.>.> = * > | gXBXcXxXeXwX7XP.L.L.Z.k $                       ",
"                    $ % 3 . w Z l.z.V.3XM.).+X].].2.5.9.7.*.4.`.=XoX,.1 1 Y { ' 5.1X0XvXzXeXwX8XL.L.L.F.m $                     ",
"                  + & 5 5 j l.c.V.7Xa.| | ,.).+X-.*.1.9.].4.6.+XfX,X%.< 1 ' %.Y { d.d.N.lXvXzXeXwXP.L.L.F.m $                   ",
"                + 5 w 7 b z.V.K.$X2.T *.aXjXjXfX%X4.:.7.Q.d.].,XAX<X} Y Y 5.`.].T { { 8.:X_.4XxXzXeXP.F.F.b.z $                 ",
"              o - j t M c.K.7X1X] { o.O.uXCXCXCXCXgX,XOX~.'.%XgXCXfX:.%.Y =X,XaX2.] @./._._.8.1XcXxXeX8XL.b.f.a @               ",
"            o - s s M V.H.eX<X`.d.4.%.;.7.ZXVXCXCXVXmXmXuX>X=XjXmX,X&XOX} >XsXhX,X:.(.*X_.s.q.oXaXcXcXeX8XZ.f.V 0 o             ",
"            $ f x M D.H.wX+X`.:XuX,Xd.w.,.,XVXCXCXCXNXNXbXjXOXOX,.OX>X=XoXaXsXaXgX,X/./._.~.&XyX,X1XcXxXeXI.j.C x & o           ",
"          $ p M n c.P.wX@XY Y =XjXjXhXN.d.<XNXZXCXCXCXbXjXjX:X=X`.+X=X=X,XaXhXhXjXbXpX*X:X_.fXjX`.'.jXBXcXwXj.C M a +           ",
"        o 0 V B v.S.8X0X .' 5.:XjXVXCXVXkXfXjXNXCXCXCXNXbX,XOX=X,X2XOX=XaXdXnXmXNXmXbXNXnX=XuXjX,X:X0.0.cXcX7Xk.M x & O         ",
"        + n g.g.D.J.qX0.| ..).>X1XNXCXCXZXbXgXAXCXCXCXVXgX,X=X:X:XN.N.5XaXjXmXmXNXZXCXCXAXOXfXfX~...{ T 5XcXzXj.M x s O         ",
"      o a v.g.n.L.wXd.} o.o.#.Q.%X:XbXZXVXNXbXjXCXCXCXNXfXhXhXuX3Xm.6X'.aXbXNXNXCXCXCXCXgXuXuXQ.O.[ ;.-.-.lXBX6XV x g q +       ",
"      + V b.v.D.8X0X%.o.o.o.*.'.aXgX:XZXCXCXCXVXCXCXCXdX-X XQ.Q.|.;XdX,XnXNXaX>XaXyX,X:X~.aXsX~.O.[ *.-.| ,XBXcXh.b g p $       ",
"    X 0 b.b.n.L.eX=X%X&X*.o.o.6.nXuXuXCXCXCXCXCXVXiXE.Q J H J J J J P _ .XVXhXgXaX,X=X8.2.%.~.1.T o.-.;XaXaXBXBX6Xn g g - O     ",
"    o m F.b.S.8XqX%XdXCXmX].1.].pXpXuXCXCXCXCXtX_ J D D Q E..XiXtX{.E D F ` dXsXmXuX,.`.0.+.&.-.;.W.jXCXjX<XvXBXcXy.g g p O     ",
"    $ j.F.D.H.wX:X>XmXCXBXnX,X>XuXuXyXCXCXCXnXQ D D D E tX[.}..X.X}..XQ D D _ sX-X&.%.aX`.:.4.6.].uXCXCXjX-X,XZXBXC.c x f ;     ",
"  o a D.F.D.8XqX9.{ &.jXjXgXgXdXjXZXmXCXCXCXCX-XQ D D W {.}.VXCXCXdX^.T.H D D ^.R.' oXhXoX7.~.&XaXjXjX0X,.1 &.hXBXlXn x x e $   ",
"  o z L.F.S.9XkXuX=X:.gXbXmXmXmXjXmXZXCXCXCXCXNXY.D D W }.tXCXCXCXmXOXW.W D D ^ {.W.bXjXoXq.0.a.0.8.8.q.> < %XfXCXcXu.b b p +   ",
"  $ k.L.S.H.wX:X<X,XuXaXnXbXmXmXNXNXVXCXCXCXCXCXY.G G W {.iXCXCXCXaX&X,XQ D D Q tXtXCX,X>.| | %.,.8.@XXX= * @.fXVXBXN.B b s %   ",
"  ; j.L.S.P.0X,.6.`.&X>XyXgXmXmXNXNXCXCXCXCXCXNXY.D G W {.tXCXCXCX1X,XaXI D D _ tXtXCXjX5.} >.q.).2XAXXX' +.q.,XBXCX6Xn x f &   ",
"o : A.L.S.P.4X+.} *.:.:.!.-XsXgXuX,X,XNXAXjXjXjXY.D D W {.tXVXCXNX,XjX{.F D D E.{.dXCXCX:X:.XX&X&XfXAXoX~.).*X-XmXCXlXr.b x : O ",
"o a F.F.G.8X0X4.Y > = * } CXCXNX=X2.8.NXkXfXfXhXY.D D W }.iXCXCXjXyX{.P D F _ |.[.NXVXVXNXoX-.7.&XgXyXU.U.U.-.3.<XCXAXr.c x q o ",
"X a F.F.G.9XkX=X|.].;.< < bXCXCXgX2.8.VXVXmX^.E.Q D D P ` E.}.^.Y.W H G P Y.[.^.hXNXNXVXNXaXOX'.>XhX}.Y.=.=.;.-.oXCXcXy.b x q o ",
"X k L.F.S.9XlX+X1.4.7.d.4.=XvXVX,X0.`.NXVXsXW J H D D F J P J J F G D F ~ Y.}.AXNXNXNXNXNXjX1X%XuXhXW.Q.7.7.!.>.`.BXBXu.c g q O ",
"X k L.F.S.9XkX+X>.Y T [ ;.1.=X<X+X9.`.jXNXgX}.}._ D D E tXtX.X}.}.^.` J D H Y.nXNXNXmXNXNXaX~.:.0.uX%X&X=X=X`.:.0.CXBXy.b x e O ",
"o k G.G.S.9X0X-Xd.R ( ( =.-.].5.`.&X+X:XfXSX^.^.~ D D ! [.T.R.[.Q.E.{.{.I D D ` tXsXmXaXgX:X>.| } =XsX;X;X'.:.Y 1.ZXBXy.x x q @ ",
"o k L.G.S.9X<XOX=./ ;.=.=.].>XaXgX,XOX:X<X<X4X0X) D D E R.[.0XmXkX=X X[.Y.F D F T.E.hXhXhXuXoX:.2.`.,X;X'.].d.i &.BXvXy.x x q o ",
"X p F.G.H.8X0XW.=.=.;.*.1.%XaXjXhX0.,.:X>X<XaXaX) D D E -..XlXjXAXkX&X).R.H D D ^ ^.;XkXmXkXd.:.1.8.,XaX=X].].T ,.BXvXr.x x q @ ",
"X a D.L.H.8X1Xo.o.o.*.-.d.;XyXgX,X9.8.yXSXaXaX<X) D D E Q..XvXhXgXAXfX@X3.H D D E {.}.jXmXuX~.5.5.6.OXaXyX=X].-.2.BXvXn g h 0 @ ",
"X - Z.L.S.8X$X1 1 i R { 9.'.-X>XaXhX>X<X<XaX<XaX/ D D W [.W.fXhXSXlX<X&X3.F G D P [. XbXfX=X&X+X`.0.d.$Xd.X.e.k d.BXqXn g g - O ",
"  ; j.L.G.H.6XY i Y *.:.2.oX:X,XaXhXgX=X>XaXaXyX/ D D W R.W.aXaX,XAXSX+X=.D G D ! ^.[.mXaX%XOXOX%X`.4.e.m X.X.' :XBX3Xb g s %   ",
"  $ k.L.G.P.qXd.7..XdX=X>X,X:X,X<XgXgX:X<XaX:X=X/ D D E =.[.dXuX>XfXAX|.P D G G E.R.-XCXfX&XOXOX+X+XOXd.R i X.d.AXBXm.x g s +   ",
"  X z L.F.F.8X1X].d.d.aXuX,X>XyXgXjXhXaXgX<X2X2X^ D D E =.].aX5X%X*X^.W D G D ^ ;X{.VXmXkXhXfX,X=X=X1X6Xe.{ .X5XBXBXy.g g e @   ",
"  X : A.L.D.8X0X5.Y ' `.=X:X,XuX<X,XjXjXhXhX-X/ F D D H E E Q W I H G D G J / '.E.dXNX,X:XjXNXgX5X,X=X'.' 2 } kXBXlXn x g 9 X   ",
"    $ f.L.A.P.wXlXNX<X4.`.&X&XOX=XhXVXmXmXmX{./ ~ ~ ~ / / ^ ~ ~ ^ ( ( ~ T.Q.3.Y.;XNXjXXX2XNXNXNXsX=X].].{ > ] vXCXC.x g f %     ",
"    o m F.Z.D.8XcXCX4X8.9.1.-.~.<XCXCXNXVXjXyXR.T.-.R.^.R.-.R.R.=.=.=.=.=.Y.R 1.&X=X:X0.:XCXCXNX-X].].7.[ i OXBXcXh.f g a O     ",
"    o : x.x.c.H.eXCXuXw.$.O.#.3.>XVXCXVXbXuXtX|.|.'.|.-X|.].]. X!.3.Q.~.'.yX0.'  .+.,.>.=XVX&X4.d.-.*.*.{ ;.vXBXqXn g f & o     ",
"      + n x.f.D.8XlX$...$.] O.-.d.&X-X-X;X*X%X;X,X@X2XaX,X=X~.oX:Xq.5.q.:XBXNX9.%.,.,.2.q.&.{ T ;.-.;.T T =XcXcXB.x g p +       ",
"      @ a j.g.j.H.wXM.$.$.@.*.;.;.T T 9.].].!.'.@X<.d.d.,XXX| 8.uXq. .5.gXNXNXhXgXNXNXnX*.2 > K R T ;.R -.vXcXrXV x g 5 @       ",
"        o b g.V x.8XlX#X3.:.-.#.R 1 %.4.'.].9.OXN.<.<.+.:.%.| '.aX,X`.<XjXNXNXmXfXhXZX-X1.' = * 2 < o.d.kXBXxXB.n b p +         ",
"        o : V B t.K.wXvX<X*X*X;.K T &.&.6.9.].OXp.<.<.e.=X+X>.yXaXjXNXhXmXNXNXNXjXaX>XW.].6.| 2 Y 4.d.gXcXxXqXg.M g - O         ",
"          + k V B u.8XzXlXhXjX:.K [ @.@.(.).].~.p.p.<.@XCXCX,XuX=XmXNXjXAXZXVXNXZXgX(.#.!.%X0.| '.0XaXBXcXzXb.k.M a +           ",
"            $ k c c h.8XeXNX>X&.| @.@.-.;XaX'.N.p.p.p.jXCXCXoX~.[ aXNXbXmXVXVXVXVX*X#.O.T ~.+X' } fXcXcXxXK.f.V g %             ",
"            + ; s l f h.K.wX0X-.K  .#./.hXdX-Xs.p.p.5.jXnXpX/.*X'.oX<XgXjXNXCXCXbX2.O.L L R 4.,.OXcXcXxX9XZ.f.V - o             ",
"              + - p t s h.S.7X@X> ] W.gXMXdXsX).s.w.:.3.#.(./.*X%X!.q.XX&XfXVXCX&X2.3.T U , +.1XcXcXxX9XL.n.g.e o               ",
"                O - w w r V V.K.M.a.~.,XuXiXiXa... .&.] L (./.*X=X!.9.9.>.:XjXgX8.q.).2.T } 0XcXxXeX9XP.L.b.k +                 ",
"                  + 5 5 4 5 M z.V.3Xa.2.~.=XOX| @.&.].{ L )._.*X=X!.9.XX8.:XhX5.| >.~.:XfXvXxXeXeX8XL.L.A.z +                   ",
"                    + # . . 6 h l.z.V.6X4XjX&X>.5.!.-X[ ' a.).~.!.!.6.oX0.:XhXOX,.a.4XvXzXeXwX9XP.L.L.Z.z $                     ",
"                      + O . 4 8 d N l.z.C.6X4X~.,.2.iX-...0.+X:.> K +.oXXX] +X<X<XlXeXwX9X9XP.L.L.L.b.a $                       ",
"                        O @ # 6 t d M Z A l.C.C.$X@X1X+X>.q.OX:.> 2 > ,.0...0XrXwXwX7X7XK.V.F.F.F.k.: o                         ",
"                          + O & w d l n V C Z Z t.u.u.s.M.M.M.$X6X6X3XqXwX9X8X7XJ.S.z.t.C z.F.b.z $ o                           ",
"                              @ # q s n i.t.h.f.Z N c l l v v u.H.J.J.H.H.V.B.t.M d d g C f.m : o                               ",
"                                  @ ; e b t.z.Z.I.z.f.V B l s V c.c.z.C M d t 6 4 8 j g s 0 $ X                                 ",
"                                      @ % e m j.Z.Z.Z.Z.A.n.b.v.g.C S d 8 6 4 4 4 6 5 % + o                                     ",
"                                          o @ - a z n k.j.x.v.f.C N h j 6 4 3 . O + o                                           ",
"                                                o o $ ; - : q 0 0 : ; % + + + +                                                 ",
"                                                            X X o o                                                             "
};
